<?xml version="1.0" encoding="UTF-8"?>
<svg width="310.94mm" height="541.87mm" version="1.1" viewBox="0 0 1101.7626 1919.9999" xmlns="http://www.w3.org/2000/svg">
 <g transform="translate(-350.93 2394.4)">
  <g transform="matrix(2.42 0 0 2.42 820.41 -3072.1)" shape-rendering="auto">
   <path d="m33.568 280.03c-23.114 0-44.004 2.3491-59.86 6.4276-7.9282 2.0393-14.536 4.3853-20.19 7.8241-2.8274 1.7194-5.4687 3.6304-8.1274 6.9723s-5.791 9.3463-5.791 17.18c1e-4 0.18914 0.0027 0.37879 0.0072 0.56783 5.01e-4 0.0314 0.0087 0.061 0.0095 0.0924-0.0068 0.19036-0.01189 0.38056-0.01422 0.57112v25.971c-18.639 2.5046-35.809 5.7494-51.036 9.6662-19.192 4.9365-35.187 10.618-48.875 18.943-6.8443 4.1622-13.236 8.7831-19.672 16.873-6.4361 8.0899-14.018 22.63-14.018 41.593a30.333 42.261 0 0 0 0.0166 1.3733c1e-3 0.0762 0.017 0.1484 0.0189 0.22448a30.333 42.261 0 0 0 -0.0332 1.3832v539.55l0.89804-5.0213a30.333 42.261 0 0 0 -0.85776 11.627 30.333 42.261 0 0 0 0.0616 1.7002 30.333 42.261 0 0 0 0.23458 3.0801 30.333 42.261 0 0 0 0.083 0.75599c2e-3 0.0237 2e-3 0.049 5e-3 0.0726a30.333 42.261 0 0 0 0.0189 0.15846 30.333 42.261 0 0 0 0.0545 0.5051l-0.0569-0.39615c1.6336 15.895 8.2934 27.783 14.025 34.832 6.4208 7.8971 12.796 12.467 19.638 16.586 13.684 8.238 29.686 13.901 48.854 18.808 38.337 9.8132 88.763 15.458 144.51 15.46a30.333 42.261 0 0 0 0.0024 0c55.745 0 106.16-5.6501 144.5-15.463 19.167-4.9066 35.166-10.566 48.849-18.804 6.8417-4.1189 13.218-8.6886 19.638-16.586 4.0495-4.9808 8.3892-12.612 11.276-22.122a30.333 42.261 0 0 0 3.5353 -19.735v-549.79a30.333 42.261 0 0 0 -5.7841 -24.75c-3.3689-8.105-7.6886-14.187-11.651-18.494-6.3205-6.8696-12.629-11.166-19.465-15.041-13.672-7.7492-29.71-13.261-48.74-17.989-14.446-3.5888-30.556-6.5942-47.958-8.9465v-28.002c-5e-3 -3.6734-0.84216-7.2512-2.3908-10.224-1.3917-3.3482-3.1756-5.8602-4.8124-7.6392-2.611-2.8378-5.2182-4.6125-8.042-6.213-5.6478-3.2012-12.272-5.4782-20.134-7.4312-15.722-3.906-36.197-6.15-58.725-6.1536zm94.078 108.14a197.14 50.708 0 0 1 102.97 44.541 197.14 50.708 0 0 1 -197.14 50.708 197.14 50.708 0 0 1 -197.14 -50.708 197.14 50.708 0 0 1 103.29 -44.535c0.0052 0.20461 0.01333 0.40982 0.02369 0.61404 0.02113 0.42564 0.05369 0.84867 0.09715 1.271 0.0108 0.10429 0.02106 0.20966 0.03317 0.31361 1e-3 0.0102 0.0013 0.0199 0.0024 0.0297l0.0072 0.066c0.0072 0.0696 0.01589 0.13845 0.02369 0.20799 0.70442 6.4811 3.4224 11.338 5.7697 14.225 2.6524 3.2623 5.2867 5.1486 8.1131 6.8502 5.6529 3.4031 12.263 5.7444 20.181 7.7713 15.837 4.0538 36.668 6.3837 59.697 6.3847 23.028-1e-3 43.856-2.3342 59.692-6.388 7.9178-2.0269 14.528-4.3649 20.181-7.768 2.8263-1.7015 5.4585-3.5879 8.1108-6.8502 1.6728-2.0576 3.4657-5.2096 4.6584-9.138 0.89312-2.3463 1.372-4.9468 1.4359-7.5963zm103.3 185.36v407.17h-0.37912c-0.54378 27.901-88.618 50.447-197.09 50.454-108.48 0-196.56-22.551-197.11-50.454h-0.0332v-0.2377l-2e-3 -0.0165 2e-3 -0.0132v-70.304h0.0332c0.26479 13.586 21.322 25.895 55.344 34.957v-41.666c-34.022-9.0625-55.079-21.368-55.344-34.954h-0.0332v-70.519h0.0332c0.26479 13.586 21.322 25.895 55.344 34.957v-41.666c-34.022-9.0625-55.079-21.368-55.344-34.954h-0.0332v-70.519h0.0332c0.26479 13.586 21.322 25.895 55.344 34.957v-41.666c-34.022-9.0625-55.079-21.368-55.344-34.954h-0.0332v-65.792l0.40755-3e-3c6.1281 26.795 92.377 47.72 196.73 47.73 108.88 0 197.14-22.703 197.14-50.708-0.041-0.59786-0.1232-1.1955-0.24642-1.7926l0.57578-7e-3z" color="#000000" color-rendering="auto" fill="#5fbcd3" image-rendering="auto" solid-color="#000000" style="block-progression:tb;isolation:auto;mix-blend-mode:normal;text-decoration-color:#000000;text-decoration-line:none;text-decoration-style:solid;text-indent:0;text-transform:none;white-space:normal"/>
   <path d="m-144 691.95 0.61328 3.0684-1.3555 5.4375a25.002 25.002 0 0 0 0.73828 -5.8945l4e-3 4e-3v-0.14063a25.002 25.002 0 0 0 0 -0.0176v-0.63281c1e-3 0.0418 0.0164 0.0712 0.0176 0.11328a25.002 25.002 0 0 0 -0.0176 -0.22851v-1.709z" color="#000000" color-rendering="auto" fill="#00f" image-rendering="auto" solid-color="#000000" style="block-progression:tb;isolation:auto;mix-blend-mode:normal;text-decoration-color:#000000;text-decoration-line:none;text-decoration-style:solid;text-indent:0;text-transform:none;white-space:normal"/>
  </g>
 </g>
</svg>
